<?xml version="1.0" encoding="utf-8"?>
<!-- Generator: Adobe Illustrator 16.0.0, SVG Export Plug-In . SVG Version: 6.00 Build 0)  -->
<!DOCTYPE svg PUBLIC "-//W3C//DTD SVG 1.1//EN" "http://www.w3.org/Graphics/SVG/1.1/DTD/svg11.dtd">
<svg version="1.1" id="_x32_" xmlns="http://www.w3.org/2000/svg" xmlns:xlink="http://www.w3.org/1999/xlink" x="0px" y="0px"
	 width="826.658px" height="727.165px" viewBox="0 0 826.658 727.165" enable-background="new 0 0 826.658 727.165"
	 xml:space="preserve">
<g>
	<g>
		<path fill="#0070C0" d="M413.326,291.867c-16.475,0-31.963-6.415-43.612-18.062c-11.649-11.648-18.065-27.135-18.064-43.608
			v-27.214c0-34.009,27.668-61.678,61.676-61.678c34.004,0,61.669,27.668,61.671,61.678v27.214
			C474.997,264.202,447.331,291.867,413.326,291.867z"/>
		<path fill="#000F1A" d="M413.326,148.305c30.144,0,54.669,24.529,54.671,54.678v27.214c0,30.145-24.525,54.67-54.671,54.67
			c-14.605,0-28.335-5.687-38.663-16.012s-16.014-24.054-16.014-38.658v-27.214C358.65,172.833,383.177,148.305,413.326,148.305
			 M413.326,134.305c-37.928,0-68.676,30.743-68.676,68.678v27.214c-0.001,37.928,30.749,68.67,68.676,68.67
			c37.927,0,68.671-30.743,68.671-68.67v-27.214C481.995,165.047,451.253,134.305,413.326,134.305L413.326,134.305z"/>
	</g>
</g>
<g>
	<path fill="#000F1A" d="M742.419,65.562v375.13c0,19.38-15.85,35.29-35.26,35.37v-28.301c-0.01-17.029-3.86-33.17-10.74-47.609
		V76.163h-557.33v353.88h143.75v-37.9c0-50.75,29-85.5,71.3-101.62c15.93,13.68,36.59,22.02,59.19,22.02
		c22.6,0,43.25-8.34,59.19-22.02c30.5,11.62,54.09,32.94,64.88,62.95c-26.681,16.66-45.811,44.31-50.99,76.57
		c-0.47,2.86-0.82,5.75-1.061,8.68c-0.239,2.98-0.359,6-0.359,9.04v28.301h-356.52c-19.49,0-35.4-15.94-35.4-35.37V65.562
		c0-19.46,15.91-35.37,35.4-35.37h578.55C726.48,30.192,742.419,46.103,742.419,65.562z"/>
</g>
<g>
	<g>
		<path fill="#000F1A" d="M793.86,722.573v4.59h-395.55v-4.59c0-76.92,43.95-129.59,108.07-154.021
			c24.141,20.74,55.45,33.38,89.7,33.38s65.55-12.64,89.71-33.38C749.9,592.983,793.86,645.653,793.86,722.573z"/>
	</g>
	<g>
		<g>
			<path fill="#000F1A" d="M693.159,447.762v41.24c0,2.49-0.09,4.95-0.28,7.39c-1.01,13.311-4.71,25.881-10.569,37.171
				c-16.171,31.17-48.75,52.52-86.23,52.52c-25.93,0-50.31-10.1-68.65-28.44c-7.189-7.18-13.119-15.3-17.659-24.079
				c-5.94-11.471-9.521-24.061-10.511-37.171c-0.18-2.449-0.27-4.909-0.27-7.39v-41.24c0-3.05,0.14-6.069,0.42-9.04
				c0.27-2.939,0.67-5.83,1.21-8.68c4.78-25.85,19.83-48.13,40.75-62.44c15.59-10.68,34.43-16.93,54.71-16.93
				c47.47,0,87.1,34.26,95.45,79.37C692.599,435.792,693.159,441.712,693.159,447.762z"/>
		</g>
	</g>
</g>
<g>
	<g>
		<path fill="#000F1A" d="M494.27,533.563H63.879c-15.58,0-28.31-12.75-28.31-28.311v-8.86h449.66
			C486.079,509.363,489.15,521.903,494.27,533.563z"/>
	</g>
	<g>
		<path fill="#000F1A" d="M791.089,496.392v8.86c0,15.561-12.729,28.311-28.31,28.311h-64.96c5.069-11.511,8.229-24.03,9.09-37.171
			H791.089z"/>
	</g>
</g>
</svg>
